<?xml version="1.0" encoding="UTF-8"?>
<!DOCTYPE svg PUBLIC "-//W3C//DTD SVG 1.1//EN" "http://www.w3.org/Graphics/SVG/1.1/DTD/svg11.dtd">
<svg xmlns="http://www.w3.org/2000/svg" version="1.1" width="1536px" height="1024px" style="shape-rendering:geometricPrecision; text-rendering:geometricPrecision; image-rendering:optimizeQuality; fill-rule:evenodd; clip-rule:evenodd" xmlns:xlink="http://www.w3.org/1999/xlink">
<g><path style="opacity:1" fill="#f9f9f9" d="M -0.5,-0.5 C 511.5,-0.5 1023.5,-0.5 1535.5,-0.5C 1535.5,340.833 1535.5,682.167 1535.5,1023.5C 1023.5,1023.5 511.5,1023.5 -0.5,1023.5C -0.5,682.167 -0.5,340.833 -0.5,-0.5 Z"/></g>
<g><path style="opacity:1" fill="#001f43" d="M 563.5,369.5 C 577.992,371.427 592.326,374.093 606.5,377.5C 606.649,378.552 606.483,379.552 606,380.5C 604.273,379.626 602.44,379.793 600.5,381C 601.328,381.915 602.328,382.581 603.5,383C 596.588,383.776 589.754,383.61 583,382.5C 580.059,383.059 577.225,383.893 574.5,385C 575.022,385.561 575.355,386.228 575.5,387C 574.176,392.942 573.176,398.942 572.5,405C 572.66,409.815 573.827,414.315 576,418.5C 577,418.833 578,419.167 579,419.5C 586.293,417.111 593.46,414.777 600.5,412.5C 601.07,405.195 604.57,403.528 611,407.5C 616.173,406.137 621.339,406.304 626.5,408C 625.167,409 625.167,410 626.5,411C 631.641,413.656 636.807,413.489 642,410.5C 643.998,411.271 645.665,410.605 647,408.5C 647.308,409.308 647.808,409.975 648.5,410.5C 649.528,408.639 651.028,407.305 653,406.5C 663.118,406.685 673.285,407.019 683.5,407.5C 683.396,411.027 684.563,414.027 687,416.5C 688.558,415.655 689.558,416.321 690,418.5C 690.934,415.408 692.1,415.075 693.5,417.5C 692.684,422.491 690.351,426.657 686.5,430C 685.5,430.333 684.5,430.667 683.5,431C 658.58,431.217 633.58,430.55 608.5,429C 602.473,428.573 596.473,427.907 590.5,427C 589.874,426.25 589.374,425.416 589,424.5C 588.439,425.022 587.772,425.355 587,425.5C 583.847,423.893 580.513,422.893 577,422.5C 572.406,423.612 567.906,424.945 563.5,426.5C 563.167,411.485 563.501,396.485 564.5,381.5C 565.782,379.821 566.782,377.987 567.5,376C 566.167,375.667 564.833,375.333 563.5,375C 567.268,373.823 567.101,372.656 563,371.5C 562.308,370.563 562.475,369.897 563.5,369.5 Z"/></g>
<g><path style="opacity:1" fill="#001e3e" d="M 561.5,368.5 C 562.492,368.328 563.158,368.662 563.5,369.5C 562.475,369.897 562.308,370.563 563,371.5C 567.101,372.656 567.268,373.823 563.5,375C 564.833,375.333 566.167,375.667 567.5,376C 566.782,377.987 565.782,379.821 564.5,381.5C 563.501,396.485 563.167,411.485 563.5,426.5C 567.906,424.945 572.406,423.612 577,422.5C 580.513,422.893 583.847,423.893 587,425.5C 587.772,425.355 588.439,425.022 589,424.5C 589.374,425.416 589.874,426.25 590.5,427C 596.473,427.907 602.473,428.573 608.5,429C 633.58,430.55 658.58,431.217 683.5,431C 684.5,430.667 685.5,430.333 686.5,430C 690.351,426.657 692.684,422.491 693.5,417.5C 692.1,415.075 690.934,415.408 690,418.5C 689.558,416.321 688.558,415.655 687,416.5C 684.563,414.027 683.396,411.027 683.5,407.5C 673.285,407.019 663.118,406.685 653,406.5C 651.028,407.305 649.528,408.639 648.5,410.5C 647.808,409.975 647.308,409.308 647,408.5C 645.665,410.605 643.998,411.271 642,410.5C 636.807,413.489 631.641,413.656 626.5,411C 625.167,410 625.167,409 626.5,408C 621.339,406.304 616.173,406.137 611,407.5C 604.57,403.528 601.07,405.195 600.5,412.5C 593.46,414.777 586.293,417.111 579,419.5C 578,419.167 577,418.833 576,418.5C 573.827,414.315 572.66,409.815 572.5,405C 573.176,398.942 574.176,392.942 575.5,387C 575.355,386.228 575.022,385.561 574.5,385C 577.225,383.893 580.059,383.059 583,382.5C 589.754,383.61 596.588,383.776 603.5,383C 602.328,382.581 601.328,381.915 600.5,381C 602.44,379.793 604.273,379.626 606,380.5C 606.483,379.552 606.649,378.552 606.5,377.5C 631.491,382.332 656.491,387.165 681.5,392C 690.711,394.931 696.378,401.098 698.5,410.5C 698.5,420.167 698.5,429.833 698.5,439.5C 667.662,439.169 636.995,439.502 606.5,440.5C 604.097,440.448 601.764,440.781 599.5,441.5C 599.44,440.957 599.107,440.624 598.5,440.5C 595.317,442.696 592.484,442.696 590,440.5C 589.3,442.032 588.134,443.032 586.5,443.5C 584.549,441.908 583.216,439.908 582.5,437.5C 580.579,436.359 578.579,436.192 576.5,437C 573.019,441.315 569.353,445.482 565.5,449.5C 564.522,449.023 563.689,448.357 563,447.5C 561.335,455.141 561.168,462.807 562.5,470.5C 562.406,472.923 561.906,475.256 561,477.5C 560.667,476.167 560.333,474.833 560,473.5C 558.412,477.309 558.078,481.309 559,485.5C 560.163,483.715 560.83,481.715 561,479.5C 562.174,484.75 562.841,490.084 563,495.5C 563.904,489.405 564.904,483.405 566,477.5C 567.076,481.322 568.242,485.156 569.5,489C 568.376,489.839 567.709,491.006 567.5,492.5C 568.922,499.949 568.422,507.282 566,514.5C 564.748,512.999 563.748,511.332 563,509.5C 562.764,511.764 562.264,513.931 561.5,516C 562.654,516.914 562.487,517.747 561,518.5C 560.794,515.377 560.127,512.377 559,509.5C 558.5,518.827 558.334,528.161 558.5,537.5C 557.341,526.341 557.174,515.008 558,503.5C 559.368,501.973 559.868,500.473 559.5,499C 559,498.5 558.5,498 558,497.5C 557.747,484.906 557.247,472.573 556.5,460.5C 558.784,454.746 559.95,448.746 560,442.5C 560.333,443.167 560.667,443.833 561,444.5C 562.808,440.385 564.974,436.551 567.5,433C 566.333,432.5 565.5,431.667 565,430.5C 564,431.833 563,431.833 562,430.5C 561.824,416.925 561.324,403.425 560.5,390C 561.175,387.758 560.675,385.591 559,383.5C 558.667,383.833 558.333,384.167 558,384.5C 556,381.833 554,381.833 552,384.5C 551.667,384.167 551.333,383.833 551,383.5C 550.667,384.833 550.333,386.167 550,387.5C 549.293,385.919 548.46,384.419 547.5,383C 550.061,379.648 549.728,376.314 546.5,373C 547.676,370.699 549.01,370.366 550.5,372C 550.167,372.333 549.833,372.667 549.5,373C 552.625,376.144 555.291,375.977 557.5,372.5C 557.291,371.914 556.957,371.414 556.5,371C 558.315,370.243 559.981,369.41 561.5,368.5 Z"/></g>
<g><path style="opacity:1" fill="#eceef0" d="M 539.5,389.5 C 456.112,399.674 372.779,410.007 289.5,420.5C 289.5,418.167 289.5,415.833 289.5,413.5C 308.81,411.227 328.143,409.06 347.5,407C 405.342,399.336 463.009,391.503 520.5,383.5C 529.172,382.893 537.838,382.227 546.5,381.5C 546.5,385.5 546.5,389.5 546.5,393.5C 544.177,392.25 541.844,390.917 539.5,389.5 Z"/></g>
<g><path style="opacity:1" fill="#f3f4f5" d="M 538.5,393.5 C 539.234,394.708 539.567,396.041 539.5,397.5C 539.5,399.5 539.5,401.5 539.5,403.5C 532.396,404.86 525.396,406.693 518.5,409C 512.167,409.667 505.833,409.667 499.5,409C 497.003,408.588 495.003,407.422 493.5,405.5C 496.592,403.288 499.925,401.621 503.5,400.5C 514.794,396.428 526.461,394.094 538.5,393.5 Z"/></g>
<g><path style="opacity:1" fill="#082245" d="M 516.5,372.5 C 518.292,373.309 520.292,373.809 522.5,374C 521.106,374.171 520.272,374.671 520,375.5C 521.734,376.249 523.567,376.749 525.5,377C 521.5,378.333 521.5,379.667 525.5,381C 522.749,381.124 521.082,381.957 520.5,383.5C 463.009,391.503 405.342,399.336 347.5,407C 328.143,409.06 308.81,411.227 289.5,413.5C 289.5,415.833 289.5,418.167 289.5,420.5C 372.779,410.007 456.112,399.674 539.5,389.5C 539.167,390.833 538.833,392.167 538.5,393.5C 526.461,394.094 514.794,396.428 503.5,400.5C 499.699,399.285 496.033,399.285 492.5,400.5C 416.781,409.524 341.114,419.024 265.5,429C 269.977,431.323 274.31,433.823 278.5,436.5C 278.5,436.833 278.5,437.167 278.5,437.5C 277.29,437.932 276.29,438.599 275.5,439.5C 272.997,437.167 270.331,435.001 267.5,433C 263.833,432.667 260.167,432.333 256.5,432C 252.485,429.667 252.819,428.001 257.5,427C 265.167,426 272.833,425 280.5,424C 281.478,417.59 281.811,411.09 281.5,404.5C 359.799,393.421 438.133,382.754 516.5,372.5 Z"/></g>
<g><path style="opacity:1" fill="#f0f1f3" d="M 492.5,400.5 C 494.199,400.34 495.866,400.506 497.5,401C 490.982,403.421 485.315,407.088 480.5,412C 467.507,413.632 454.507,415.132 441.5,416.5C 387.516,422.756 333.516,428.923 279.5,435C 278.944,435.383 278.611,435.883 278.5,436.5C 274.31,433.823 269.977,431.323 265.5,429C 341.114,419.024 416.781,409.524 492.5,400.5 Z"/></g>
<g><path style="opacity:1" fill="#102643" d="M 539.5,397.5 C 540.337,400.484 541.671,403.318 543.5,406C 542.175,436.43 540.842,467.263 539.5,498.5C 539.685,499.584 540.018,500.584 540.5,501.5C 540.167,501.5 539.833,501.5 539.5,501.5C 537.956,501.297 536.622,500.63 535.5,499.5C 534.969,496.901 534.802,494.235 535,491.5C 521.407,463.98 507.574,436.646 493.5,409.5C 492.277,408.386 490.944,408.219 489.5,409C 487.461,411.374 485.128,413.374 482.5,415C 482.728,415.399 483.062,415.565 483.5,415.5C 482.081,416.451 480.415,416.784 478.5,416.5C 478.918,415.778 479.584,415.278 480.5,415C 468.464,415.103 456.464,415.936 444.5,417.5C 443.209,417.737 442.209,417.404 441.5,416.5C 454.507,415.132 467.507,413.632 480.5,412C 485.315,407.088 490.982,403.421 497.5,401C 495.866,400.506 494.199,400.34 492.5,400.5C 496.033,399.285 499.699,399.285 503.5,400.5C 499.925,401.621 496.592,403.288 493.5,405.5C 495.003,407.422 497.003,408.588 499.5,409C 505.833,409.667 512.167,409.667 518.5,409C 525.396,406.693 532.396,404.86 539.5,403.5C 539.5,401.5 539.5,399.5 539.5,397.5 Z"/></g>
<g><path style="opacity:1" fill="#babcc0" d="M 540.5,427.5 C 538.833,427.5 537.167,427.5 535.5,427.5C 535.973,445.261 535.473,462.927 534,480.5C 533.5,462.503 533.333,444.503 533.5,426.5C 524.223,426.362 516.557,429.695 510.5,436.5C 507.441,431.387 504.608,426.053 502,420.5C 501.316,419.216 501.483,418.049 502.5,417C 512.547,414.881 522.547,412.548 532.5,410C 535.146,409.503 537.813,409.336 540.5,409.5C 540.5,415.5 540.5,421.5 540.5,427.5 Z"/></g>
<g><path style="opacity:1" fill="#f5f6f6" d="M 540.5,427.5 C 540.667,450.169 540.5,472.836 540,495.5C 529.312,476.273 519.478,456.606 510.5,436.5C 516.557,429.695 524.223,426.362 533.5,426.5C 533.333,444.503 533.5,462.503 534,480.5C 535.473,462.927 535.973,445.261 535.5,427.5C 537.167,427.5 538.833,427.5 540.5,427.5 Z"/></g>
<g><path style="opacity:1" fill="#2f415e" d="M 441.5,416.5 C 442.209,417.404 443.209,417.737 444.5,417.5C 389.378,424.424 334.044,430.757 278.5,436.5C 278.611,435.883 278.944,435.383 279.5,435C 333.516,428.923 387.516,422.756 441.5,416.5 Z"/></g>
<g><path style="opacity:1" fill="#bbbfc4" d="M 496.5,419.5 C 498.739,423.649 500.739,427.982 502.5,432.5C 501.833,456.5 501.167,480.5 500.5,504.5C 500.5,485.833 500.5,467.167 500.5,448.5C 499.041,448.567 497.708,448.234 496.5,447.5C 496.5,439.833 496.5,432.167 496.5,424.5C 491.167,424.067 485.834,423.567 480.5,423C 483.036,422.814 485.369,422.314 487.5,421.5C 490.689,421.142 493.689,420.475 496.5,419.5 Z"/></g>
<g><path style="opacity:1" fill="#071b37" d="M 496.5,419.5 C 493.689,420.475 490.689,421.142 487.5,421.5C 436.251,427.605 384.918,433.272 333.5,438.5C 333.5,447.167 333.5,455.833 333.5,464.5C 333.334,474.506 333.5,484.506 334,494.5C 334.608,496.154 335.108,497.821 335.5,499.5C 335.56,500.043 335.893,500.376 336.5,500.5C 337.333,481.509 337.833,462.509 338,443.5C 347.346,441.394 356.846,440.06 366.5,439.5C 368.167,439.5 369.833,439.5 371.5,439.5C 371.5,440.5 371.5,441.5 371.5,442.5C 368.615,442.194 365.948,442.527 363.5,443.5C 356.732,443.157 350.232,444.157 344,446.5C 343.333,447.833 342.667,449.167 342,450.5C 341.501,456.157 341.334,461.824 341.5,467.5C 340.448,481.148 340.282,494.815 341,508.5C 341.678,512.245 343.845,514.245 347.5,514.5C 352.474,513.745 357.474,513.411 362.5,513.5C 364.735,513.205 366.735,513.539 368.5,514.5C 360.495,514.731 352.495,515.065 344.5,515.5C 341.941,515.802 339.607,515.468 337.5,514.5C 338.552,514.649 339.552,514.483 340.5,514C 336.232,505.058 332.232,495.891 328.5,486.5C 328.97,485.537 329.637,485.537 330.5,486.5C 331.496,471.009 331.83,455.342 331.5,439.5C 330.167,439.5 328.833,439.5 327.5,439.5C 327.5,446.167 327.5,452.833 327.5,459.5C 327.802,462.059 327.468,464.393 326.5,466.5C 327.15,459.223 326.15,452.223 323.5,445.5C 323.709,444.914 324.043,444.414 324.5,444C 319.595,443.604 314.595,442.604 309.5,441C 308.271,439.471 306.771,438.304 305,437.5C 304.517,438.448 304.351,439.448 304.5,440.5C 303.849,439.909 303.182,439.243 302.5,438.5C 302.167,439 301.833,439.5 301.5,440C 302.632,441.765 303.632,443.598 304.5,445.5C 303.25,445.577 302.417,446.244 302,447.5C 300.433,444.3 297.933,442.134 294.5,441C 296.301,440.683 296.634,440.016 295.5,439C 294.552,438.517 293.552,438.351 292.5,438.5C 354.321,430.876 416.321,423.543 478.5,416.5C 480.415,416.784 482.081,416.451 483.5,415.5C 487.159,414.317 490.825,414.317 494.5,415.5C 495.18,416.86 495.847,418.193 496.5,419.5 Z"/></g>
<g><path style="opacity:1" fill="#d9dee2" d="M 478.5,416.5 C 416.321,423.543 354.321,430.876 292.5,438.5C 287.637,438.819 282.97,438.486 278.5,437.5C 278.5,437.167 278.5,436.833 278.5,436.5C 334.044,430.757 389.378,424.424 444.5,417.5C 456.464,415.936 468.464,415.103 480.5,415C 479.584,415.278 478.918,415.778 478.5,416.5 Z"/></g>
<g><path style="opacity:1" fill="#00183c" d="M 599.5,441.5 C 589.136,445.861 582.803,453.528 580.5,464.5C 579.667,507.665 579.167,550.998 579,594.5C 578.667,580.5 578.333,566.5 578,552.5C 577.978,563.99 577.312,575.324 576,586.5C 575.22,580.726 574.554,574.726 574,568.5C 572.778,564.29 571.112,560.29 569,556.5C 568.432,550.426 567.432,544.426 566,538.5C 565.439,540.725 564.439,542.725 563,544.5C 562.808,542.423 562.308,540.423 561.5,538.5C 559.135,542.755 558.135,542.421 558.5,537.5C 558.334,528.161 558.5,518.827 559,509.5C 560.127,512.377 560.794,515.377 561,518.5C 562.487,517.747 562.654,516.914 561.5,516C 562.264,513.931 562.764,511.764 563,509.5C 563.748,511.332 564.748,512.999 566,514.5C 568.422,507.282 568.922,499.949 567.5,492.5C 567.709,491.006 568.376,489.839 569.5,489C 568.242,485.156 567.076,481.322 566,477.5C 564.904,483.405 563.904,489.405 563,495.5C 562.841,490.084 562.174,484.75 561,479.5C 560.83,481.715 560.163,483.715 559,485.5C 558.078,481.309 558.412,477.309 560,473.5C 560.333,474.833 560.667,476.167 561,477.5C 561.906,475.256 562.406,472.923 562.5,470.5C 561.168,462.807 561.335,455.141 563,447.5C 563.689,448.357 564.522,449.023 565.5,449.5C 569.353,445.482 573.019,441.315 576.5,437C 578.579,436.192 580.579,436.359 582.5,437.5C 583.216,439.908 584.549,441.908 586.5,443.5C 588.134,443.032 589.3,442.032 590,440.5C 592.484,442.696 595.317,442.696 598.5,440.5C 599.107,440.624 599.44,440.957 599.5,441.5 Z"/></g>
<g><path style="opacity:1" fill="#9da2a7" d="M 487.5,421.5 C 485.369,422.314 483.036,422.814 480.5,423C 485.834,423.567 491.167,424.067 496.5,424.5C 496.5,432.167 496.5,439.833 496.5,447.5C 496.83,464.675 496.497,481.675 495.5,498.5C 495.5,474.167 495.5,449.833 495.5,425.5C 487.117,425.603 478.784,426.269 470.5,427.5C 470.5,436.167 470.5,444.833 470.5,453.5C 469.251,452.222 467.751,451.222 466,450.5C 465.5,467.497 465.333,484.497 465.5,501.5C 463.5,501.5 461.5,501.5 459.5,501.5C 460.919,500.549 462.585,500.216 464.5,500.5C 464.833,476.491 464.5,452.491 463.5,428.5C 445.199,430.657 426.865,432.657 408.5,434.5C 408.5,441.167 408.5,447.833 408.5,454.5C 406.833,454.5 405.167,454.5 403.5,454.5C 403.83,471.675 403.497,488.675 402.5,505.5C 402.5,505.167 402.5,504.833 402.5,504.5C 402.5,481.5 402.5,458.5 402.5,435.5C 393.823,436.056 385.157,436.723 376.5,437.5C 376.5,460.5 376.5,483.5 376.5,506.5C 375.503,489.675 375.17,472.675 375.5,455.5C 374.5,455.5 373.5,455.5 372.5,455.5C 372.5,449.833 372.5,444.167 372.5,438.5C 370.265,438.205 368.265,438.539 366.5,439.5C 356.846,440.06 347.346,441.394 338,443.5C 337.833,462.509 337.333,481.509 336.5,500.5C 335.893,500.376 335.56,500.043 335.5,499.5C 336.825,486.661 336.825,473.661 335.5,460.5C 334.828,461.949 334.161,463.282 333.5,464.5C 333.5,455.833 333.5,447.167 333.5,438.5C 384.918,433.272 436.251,427.605 487.5,421.5 Z"/></g>
<g><path style="opacity:1" fill="#031f43" d="M 561.5,368.5 C 559.981,369.41 558.315,370.243 556.5,371C 556.957,371.414 557.291,371.914 557.5,372.5C 555.291,375.977 552.625,376.144 549.5,373C 549.833,372.667 550.167,372.333 550.5,372C 549.01,370.366 547.676,370.699 546.5,373C 549.728,376.314 550.061,379.648 547.5,383C 548.46,384.419 549.293,385.919 550,387.5C 550.333,386.167 550.667,384.833 551,383.5C 551.333,383.833 551.667,384.167 552,384.5C 554,381.833 556,381.833 558,384.5C 558.333,384.167 558.667,383.833 559,383.5C 560.675,385.591 561.175,387.758 560.5,390C 561.324,403.425 561.824,416.925 562,430.5C 563,431.833 564,431.833 565,430.5C 565.5,431.667 566.333,432.5 567.5,433C 564.974,436.551 562.808,440.385 561,444.5C 560.667,443.833 560.333,443.167 560,442.5C 559.95,448.746 558.784,454.746 556.5,460.5C 557.247,472.573 557.747,484.906 558,497.5C 558.5,498 559,498.5 559.5,499C 559.868,500.473 559.368,501.973 558,503.5C 557.174,515.008 557.341,526.341 558.5,537.5C 558.135,542.421 559.135,542.755 561.5,538.5C 562.308,540.423 562.808,542.423 563,544.5C 564.439,542.725 565.439,540.725 566,538.5C 567.432,544.426 568.432,550.426 569,556.5C 571.112,560.29 572.778,564.29 574,568.5C 574.554,574.726 575.22,580.726 576,586.5C 577.312,575.324 577.978,563.99 578,552.5C 578.333,566.5 578.667,580.5 579,594.5C 579.167,550.998 579.667,507.665 580.5,464.5C 580.5,507.833 580.5,551.167 580.5,594.5C 590.833,594.5 601.167,594.5 611.5,594.5C 611.5,598.167 611.5,601.833 611.5,605.5C 602.833,605.5 594.167,605.5 585.5,605.5C 585.737,606.791 585.404,607.791 584.5,608.5C 584.631,607.761 584.464,607.094 584,606.5C 583.667,607.5 583.333,608.5 583,609.5C 574.225,608.762 565.392,608.095 556.5,607.5C 553.094,607.554 549.594,607.887 546,608.5C 545.228,608.355 544.561,608.022 544,607.5C 543.355,604.441 542.522,601.441 541.5,598.5C 540.554,598.987 539.554,599.32 538.5,599.5C 534.234,598.144 529.901,597.644 525.5,598C 526.5,598.333 527.5,598.667 528.5,599C 523.099,600.034 517.766,600.2 512.5,599.5C 512.737,600.791 512.404,601.791 511.5,602.5C 511.5,601.5 511.5,600.5 511.5,599.5C 502.161,599.334 492.827,599.5 483.5,600C 475.57,603.206 467.237,604.873 458.5,605C 456.991,613.38 453.657,620.88 448.5,627.5C 444.547,632.153 439.547,635.32 433.5,637C 424.5,637.667 415.5,637.667 406.5,637C 401.719,635.687 397.385,633.52 393.5,630.5C 385.707,622.463 382.041,612.796 382.5,601.5C 343.849,597.368 305.183,593.368 266.5,589.5C 266.5,585.833 266.5,582.167 266.5,578.5C 268.167,578.5 269.833,578.5 271.5,578.5C 274.833,578.5 278.167,578.5 281.5,578.5C 281.5,566.167 281.5,553.833 281.5,541.5C 290.5,541.5 299.5,541.5 308.5,541.5C 308.5,540.167 308.5,538.833 308.5,537.5C 309.434,536.432 309.768,535.099 309.5,533.5C 302.313,533.175 295.313,533.509 288.5,534.5C 286.167,534.5 283.833,534.5 281.5,534.5C 281.5,503.5 281.5,472.5 281.5,441.5C 279.142,441.747 277.142,441.081 275.5,439.5C 276.29,438.599 277.29,437.932 278.5,437.5C 282.97,438.486 287.637,438.819 292.5,438.5C 293.552,438.351 294.552,438.517 295.5,439C 296.634,440.016 296.301,440.683 294.5,441C 297.933,442.134 300.433,444.3 302,447.5C 302.417,446.244 303.25,445.577 304.5,445.5C 311.9,459.965 319.566,474.299 327.5,488.5C 327.137,489.183 326.804,489.85 326.5,490.5C 325.506,500.987 325.172,511.654 325.5,522.5C 329.5,522.5 333.5,522.5 337.5,522.5C 338.873,522.343 340.207,522.51 341.5,523C 337.42,523.687 333.42,524.687 329.5,526C 331.833,526.333 334.167,526.667 336.5,527C 336.335,528.117 336.002,529.284 335.5,530.5C 337.362,532.862 338.529,535.529 339,538.5C 339.333,537.833 339.667,537.167 340,536.5C 340.83,542.196 340.663,547.863 339.5,553.5C 337.249,555.72 335.082,558.053 333,560.5C 332.966,562.18 332.799,563.68 332.5,565C 335.072,567.287 338.072,568.453 341.5,568.5C 341.64,570.124 340.973,571.29 339.5,572C 340.949,573.117 342.616,573.784 344.5,574C 338.144,574.684 331.811,575.517 325.5,576.5C 328.167,577.167 330.833,577.833 333.5,578.5C 333.137,579.183 332.804,579.85 332.5,580.5C 322.802,580.22 313.136,579.553 303.5,578.5C 303.5,579.833 303.5,581.167 303.5,582.5C 329.515,584.335 355.515,586.335 381.5,588.5C 384.587,575.573 392.254,566.407 404.5,561C 417.821,559.102 428.321,563.602 436,574.5C 438.717,579.267 440.884,584.267 442.5,589.5C 479.735,590.373 516.902,590.039 554,588.5C 554.889,525.491 554.555,462.491 553,399.5C 551.541,451.161 550.374,502.828 549.5,554.5C 548.674,549.684 548.174,544.684 548,539.5C 546.125,540.742 544.291,542.076 542.5,543.5C 541.756,542.009 541.09,540.509 540.5,539C 540.833,538.667 541.167,538.333 541.5,538C 537.833,537.333 534.167,537.333 530.5,538C 532.125,538.853 532.458,539.853 531.5,541C 532.328,541.915 533.328,542.581 534.5,543C 532.236,543.236 530.069,543.736 528,544.5C 527.418,540.59 525.585,537.424 522.5,535C 523.025,534.308 523.692,533.808 524.5,533.5C 524.565,526.599 527.898,524.099 534.5,526C 532.616,526.216 530.949,526.883 529.5,528C 530.416,528.278 531.082,528.778 531.5,529.5C 530.659,531.379 530.325,533.379 530.5,535.5C 534.167,535.5 537.833,535.5 541.5,535.5C 541.5,533.5 541.5,531.5 541.5,529.5C 540.538,527.547 540.205,525.714 540.5,524C 541.167,523.333 541.833,522.667 542.5,522C 537.488,521.745 532.655,521.912 528,522.5C 526.513,521.747 526.346,520.914 527.5,520C 525.545,519.047 523.878,517.713 522.5,516C 524.301,515.683 524.634,515.016 523.5,514C 519.798,513.319 516.131,513.485 512.5,514.5C 510.583,514.246 509.249,513.246 508.5,511.5C 515.515,511.422 522.515,511.089 529.5,510.5C 533.167,510.5 536.833,510.5 540.5,510.5C 540.5,507.5 540.5,504.5 540.5,501.5C 540.018,500.584 539.685,499.584 539.5,498.5C 540.842,467.263 542.175,436.43 543.5,406C 541.671,403.318 540.337,400.484 539.5,397.5C 539.567,396.041 539.234,394.708 538.5,393.5C 538.833,392.167 539.167,390.833 539.5,389.5C 541.844,390.917 544.177,392.25 546.5,393.5C 546.5,389.5 546.5,385.5 546.5,381.5C 537.838,382.227 529.172,382.893 520.5,383.5C 521.082,381.957 522.749,381.124 525.5,381C 521.5,379.667 521.5,378.333 525.5,377C 523.567,376.749 521.734,376.249 520,375.5C 520.272,374.671 521.106,374.171 522.5,374C 520.292,373.809 518.292,373.309 516.5,372.5C 531.343,369.115 546.343,367.782 561.5,368.5 Z"/></g>
<g><path style="opacity:1" fill="#eaecef" d="M 332.5,580.5 C 347.496,581.595 362.496,582.595 377.5,583.5C 380.653,570.191 387.987,559.857 399.5,552.5C 403.301,550.601 407.301,549.268 411.5,548.5C 438.913,545.91 456.247,557.91 463.5,584.5C 492.16,585.254 520.827,585.254 549.5,584.5C 549.5,574.5 549.5,564.5 549.5,554.5C 550.374,502.828 551.541,451.161 553,399.5C 554.555,462.491 554.889,525.491 554,588.5C 516.902,590.039 479.735,590.373 442.5,589.5C 440.884,584.267 438.717,579.267 436,574.5C 428.321,563.602 417.821,559.102 404.5,561C 392.254,566.407 384.587,575.573 381.5,588.5C 355.515,586.335 329.515,584.335 303.5,582.5C 303.5,581.167 303.5,579.833 303.5,578.5C 313.136,579.553 322.802,580.22 332.5,580.5 Z"/></g>
<g><path style="opacity:1" fill="#425971" d="M 698.5,410.5 C 699.494,420.319 699.827,430.319 699.5,440.5C 668.5,440.5 637.5,440.5 606.5,440.5C 636.995,439.502 667.662,439.169 698.5,439.5C 698.5,429.833 698.5,420.167 698.5,410.5 Z"/></g>
<g><path style="opacity:1" fill="#021d42" d="M 326.5,466.5 C 326.666,471.179 326.499,475.845 326,480.5C 318.566,467.299 311.4,453.966 304.5,440.5C 304.351,439.448 304.517,438.448 305,437.5C 306.771,438.304 308.271,439.471 309.5,441C 314.595,442.604 319.595,443.604 324.5,444C 324.043,444.414 323.709,444.914 323.5,445.5C 326.15,452.223 327.15,459.223 326.5,466.5 Z"/></g>
<g><path style="opacity:1" fill="#a6abb3" d="M 330.5,486.5 C 330.5,477.5 330.5,468.5 330.5,459.5C 329.5,459.5 328.5,459.5 327.5,459.5C 327.5,452.833 327.5,446.167 327.5,439.5C 328.833,439.5 330.167,439.5 331.5,439.5C 331.83,455.342 331.496,471.009 330.5,486.5 Z"/></g>
<g><path style="opacity:1" fill="#f2f3f4" d="M 539.5,501.5 C 539.5,504.167 539.5,506.833 539.5,509.5C 535.958,509.187 532.625,509.521 529.5,510.5C 522.515,511.089 515.515,511.422 508.5,511.5C 485.984,512.72 463.65,514.386 441.5,516.5C 415.129,517.118 388.796,518.452 362.5,520.5C 354.164,520.782 345.831,521.116 337.5,521.5C 333.833,521.5 330.167,521.5 326.5,521.5C 326.5,511.167 326.5,500.833 326.5,490.5C 328.206,492.612 329.539,494.945 330.5,497.5C 330.5,503.833 330.5,510.167 330.5,516.5C 332.5,516.5 334.5,516.5 336.5,516.5C 339.385,516.806 342.052,516.473 344.5,515.5C 352.495,515.065 360.495,514.731 368.5,514.5C 413.283,511.327 457.95,508.327 502.5,505.5C 502.5,481.167 502.5,456.833 502.5,432.5C 500.739,427.982 498.739,423.649 496.5,419.5C 495.847,418.193 495.18,416.86 494.5,415.5C 490.825,414.317 487.159,414.317 483.5,415.5C 483.062,415.565 482.728,415.399 482.5,415C 485.128,413.374 487.461,411.374 489.5,409C 490.944,408.219 492.277,408.386 493.5,409.5C 507.574,436.646 521.407,463.98 535,491.5C 534.802,494.235 534.969,496.901 535.5,499.5C 536.622,500.63 537.956,501.297 539.5,501.5 Z"/></g>
<g><path style="opacity:1" fill="#b0b4b6" d="M 363.5,443.5 C 366.167,443.5 368.833,443.5 371.5,443.5C 371.5,447.167 371.5,450.833 371.5,454.5C 364.5,454.923 357.5,455.423 350.5,456C 346.491,459.161 343.491,462.994 341.5,467.5C 341.334,461.824 341.501,456.157 342,450.5C 342.667,449.167 343.333,447.833 344,446.5C 350.232,444.157 356.732,443.157 363.5,443.5 Z"/></g>
<g><path style="opacity:1" fill="#667280" d="M 366.5,439.5 C 368.265,438.539 370.265,438.205 372.5,438.5C 372.5,444.167 372.5,449.833 372.5,455.5C 372.667,474.17 372.5,492.836 372,511.5C 371.5,492.503 371.333,473.503 371.5,454.5C 371.5,450.833 371.5,447.167 371.5,443.5C 368.833,443.5 366.167,443.5 363.5,443.5C 365.948,442.527 368.615,442.194 371.5,442.5C 371.5,441.5 371.5,440.5 371.5,439.5C 369.833,439.5 368.167,439.5 366.5,439.5 Z"/></g>
<g><path style="opacity:1" fill="#071f37" d="M 495.5,498.5 C 491.162,498.378 490.828,498.045 494.5,497.5C 494.5,489.833 494.5,482.167 494.5,474.5C 487.794,474.448 481.128,474.948 474.5,476C 472.839,479.15 473.839,480.65 477.5,480.5C 477.5,486.5 477.5,492.5 477.5,498.5C 480.385,498.194 483.052,498.527 485.5,499.5C 480.507,499.916 475.507,500.249 470.5,500.5C 470.5,484.833 470.5,469.167 470.5,453.5C 470.5,444.833 470.5,436.167 470.5,427.5C 478.784,426.269 487.117,425.603 495.5,425.5C 495.5,449.833 495.5,474.167 495.5,498.5 Z"/></g>
<g><path style="opacity:1" fill="#f6f6f7" d="M 496.5,447.5 C 497.708,448.234 499.041,448.567 500.5,448.5C 500.5,467.167 500.5,485.833 500.5,504.5C 499.167,504.5 497.833,504.5 496.5,504.5C 451.642,506.848 406.976,509.848 362.5,513.5C 357.474,513.411 352.474,513.745 347.5,514.5C 343.845,514.245 341.678,512.245 341,508.5C 340.282,494.815 340.448,481.148 341.5,467.5C 343.491,462.994 346.491,459.161 350.5,456C 357.5,455.423 364.5,454.923 371.5,454.5C 371.333,473.503 371.5,492.503 372,511.5C 372.5,492.836 372.667,474.17 372.5,455.5C 373.5,455.5 374.5,455.5 375.5,455.5C 375.17,472.675 375.503,489.675 376.5,506.5C 378.833,506.5 381.167,506.5 383.5,506.5C 389.797,505.68 396.131,505.347 402.5,505.5C 403.497,488.675 403.83,471.675 403.5,454.5C 405.167,454.5 406.833,454.5 408.5,454.5C 408.5,471.167 408.5,487.833 408.5,504.5C 412.167,504.5 415.833,504.5 419.5,504.5C 431.711,504.233 443.711,503.233 455.5,501.5C 456.833,501.5 458.167,501.5 459.5,501.5C 461.5,501.5 463.5,501.5 465.5,501.5C 465.333,484.497 465.5,467.497 466,450.5C 467.751,451.222 469.251,452.222 470.5,453.5C 470.5,469.167 470.5,484.833 470.5,500.5C 475.507,500.249 480.507,499.916 485.5,499.5C 489.042,499.813 492.375,499.479 495.5,498.5C 496.497,481.675 496.83,464.675 496.5,447.5 Z"/></g>
<g><path style="opacity:1" fill="#041d36" d="M 459.5,501.5 C 458.167,501.5 456.833,501.5 455.5,501.5C 443.289,501.767 431.289,502.767 419.5,504.5C 415.833,504.5 412.167,504.5 408.5,504.5C 408.5,487.833 408.5,471.167 408.5,454.5C 408.5,447.833 408.5,441.167 408.5,434.5C 426.865,432.657 445.199,430.657 463.5,428.5C 464.5,452.491 464.833,476.491 464.5,500.5C 462.585,500.216 460.919,500.549 459.5,501.5 Z"/></g>
<g><path style="opacity:1" fill="#051d35" d="M 402.5,504.5 C 399.833,504.5 397.167,504.5 394.5,504.5C 394.821,498.974 394.488,493.64 393.5,488.5C 393.389,487.883 393.056,487.383 392.5,487C 393.793,486.51 395.127,486.343 396.5,486.5C 396.88,484.302 396.213,482.635 394.5,481.5C 389.36,480.512 384.026,480.179 378.5,480.5C 378.5,488.833 378.5,497.167 378.5,505.5C 380.415,505.216 382.081,505.549 383.5,506.5C 381.167,506.5 378.833,506.5 376.5,506.5C 376.5,483.5 376.5,460.5 376.5,437.5C 385.157,436.723 393.823,436.056 402.5,435.5C 402.5,458.5 402.5,481.5 402.5,504.5 Z"/></g>
<g><path style="opacity:1" fill="#032042" d="M 1100.5,460.5 C 1105.83,460.5 1111.17,460.5 1116.5,460.5C 1116.5,488.833 1116.5,517.167 1116.5,545.5C 1111.17,545.5 1105.83,545.5 1100.5,545.5C 1100.66,544.127 1100.49,542.793 1100,541.5C 1093.86,546.605 1087.03,547.772 1079.5,545C 1071.83,537.51 1068.17,528.344 1068.5,517.5C 1068.37,507.82 1071.37,499.32 1077.5,492C 1083.89,487.491 1090.89,486.325 1098.5,488.5C 1098.56,489.043 1098.89,489.376 1099.5,489.5C 1100.5,479.856 1100.83,470.19 1100.5,460.5 Z"/></g>
<g><path style="opacity:1" fill="#9ba6b4" d="M 917.5,463.5 C 911.729,462.887 906.396,463.554 901.5,465.5C 900.596,464.791 900.263,463.791 900.5,462.5C 906.358,462.178 912.025,462.511 917.5,463.5 Z"/></g>
<g><path style="opacity:1" fill="#8c9bac" d="M 972.5,463.5 C 977.975,462.511 983.642,462.178 989.5,462.5C 989.784,464.415 989.451,466.081 988.5,467.5C 988.5,466.167 988.5,464.833 988.5,463.5C 983.167,463.5 977.833,463.5 972.5,463.5 Z"/></g>
<g><path style="opacity:1" fill="#082245" d="M 799.5,461.5 C 812.149,461.971 815.149,467.471 808.5,478C 798.127,481.063 793.627,477.23 795,466.5C 796.193,464.503 797.693,462.836 799.5,461.5 Z"/></g>
<g><path style="opacity:1" fill="#032043" d="M 917.5,463.5 C 920.862,480.993 924.028,498.66 927,516.5C 930.717,498.862 934.217,481.196 937.5,463.5C 942.833,463.5 948.167,463.5 953.5,463.5C 956.836,480.513 960.336,497.513 964,514.5C 967.397,497.671 970.23,480.671 972.5,463.5C 977.833,463.5 983.167,463.5 988.5,463.5C 988.5,464.833 988.5,466.167 988.5,467.5C 983.402,493.424 978.735,519.424 974.5,545.5C 968.5,545.5 962.5,545.5 956.5,545.5C 953.241,526.703 949.407,508.036 945,489.5C 941.049,508.086 937.549,526.753 934.5,545.5C 928.5,545.5 922.5,545.5 916.5,545.5C 911.929,518.741 906.929,492.074 901.5,465.5C 906.396,463.554 911.729,462.887 917.5,463.5 Z"/></g>
<g><path style="opacity:1" fill="#041d40" d="M 997.5,461.5 C 1006.49,460.663 1010.66,464.663 1010,473.5C 1004.75,481.012 999.086,481.345 993,474.5C 991.381,468.968 992.881,464.634 997.5,461.5 Z"/></g>
<g><path style="opacity:1" fill="#f3f4f5" d="M 335.5,499.5 C 335.108,497.821 334.608,496.154 334,494.5C 333.5,484.506 333.334,474.506 333.5,464.5C 334.161,463.282 334.828,461.949 335.5,460.5C 336.825,473.661 336.825,486.661 335.5,499.5 Z"/></g>
<g><path style="opacity:1" fill="#8593a2" d="M 1100.5,460.5 C 1100.83,470.19 1100.5,479.856 1099.5,489.5C 1098.89,489.376 1098.56,489.043 1098.5,488.5C 1099.17,479.167 1099.83,469.833 1100.5,460.5 Z"/></g>
<g><path style="opacity:1" fill="#dde0e6" d="M 304.5,440.5 C 311.4,453.966 318.566,467.299 326,480.5C 326.499,475.845 326.666,471.179 326.5,466.5C 327.468,464.393 327.802,462.059 327.5,459.5C 328.5,459.5 329.5,459.5 330.5,459.5C 330.5,468.5 330.5,477.5 330.5,486.5C 329.637,485.537 328.97,485.537 328.5,486.5C 332.232,495.891 336.232,505.058 340.5,514C 339.552,514.483 338.552,514.649 337.5,514.5C 336.167,514.5 334.833,514.5 333.5,514.5C 333.5,511.5 333.5,508.5 333.5,505.5C 333.982,502.169 332.982,499.503 330.5,497.5C 329.539,494.945 328.206,492.612 326.5,490.5C 326.804,489.85 327.137,489.183 327.5,488.5C 319.566,474.299 311.9,459.965 304.5,445.5C 303.632,443.598 302.632,441.765 301.5,440C 301.833,439.5 302.167,439 302.5,438.5C 303.182,439.243 303.849,439.909 304.5,440.5 Z"/></g>
<g><path style="opacity:1" fill="#51657e" d="M 495.5,498.5 C 492.375,499.479 489.042,499.813 485.5,499.5C 483.052,498.527 480.385,498.194 477.5,498.5C 477.5,492.5 477.5,486.5 477.5,480.5C 473.839,480.65 472.839,479.15 474.5,476C 481.128,474.948 487.794,474.448 494.5,474.5C 494.5,482.167 494.5,489.833 494.5,497.5C 490.828,498.045 491.162,498.378 495.5,498.5 Z"/></g>
<g><path style="opacity:1" fill="#576a82" d="M 394.5,481.5 C 396.213,482.635 396.88,484.302 396.5,486.5C 395.127,486.343 393.793,486.51 392.5,487C 393.056,487.383 393.389,487.883 393.5,488.5C 393.5,493.833 393.5,499.167 393.5,504.5C 388.833,504.5 384.167,504.5 379.5,504.5C 379.5,496.833 379.5,489.167 379.5,481.5C 384.5,481.5 389.5,481.5 394.5,481.5 Z"/></g>
<g><path style="opacity:1" fill="#243d55" d="M 502.5,432.5 C 502.5,456.833 502.5,481.167 502.5,505.5C 500.265,505.795 498.265,505.461 496.5,504.5C 497.833,504.5 499.167,504.5 500.5,504.5C 501.167,480.5 501.833,456.5 502.5,432.5 Z"/></g>
<g><path style="opacity:1" fill="#032042" d="M 900.5,506.5 C 900.5,511.167 900.5,515.833 900.5,520.5C 890.985,520.173 881.652,520.506 872.5,521.5C 872.319,531.755 877.319,535.922 887.5,534C 890.208,532.931 892.875,531.764 895.5,530.5C 896.964,533.003 898.131,535.67 899,538.5C 899.781,539.944 899.614,541.277 898.5,542.5C 887.889,547.442 877.222,547.608 866.5,543C 862.072,539.908 859.239,535.741 858,530.5C 856.463,522.23 856.13,513.897 857,505.5C 863.658,488.167 875.492,483.333 892.5,491C 896.887,495.274 899.554,500.44 900.5,506.5 Z"/></g>
<g><path style="opacity:1" fill="#445870" d="M 1244.5,489.5 C 1239.83,489.5 1235.17,489.5 1230.5,489.5C 1230.74,490.791 1230.4,491.791 1229.5,492.5C 1229.5,491.167 1229.5,489.833 1229.5,488.5C 1234.69,488.179 1239.69,488.513 1244.5,489.5 Z"/></g>
<g><path style="opacity:1" fill="#031f40" d="M 1041.5,487.5 C 1047.11,486.908 1052.44,487.741 1057.5,490C 1058.79,491.41 1059.95,492.91 1061,494.5C 1062.44,511.444 1062.94,528.444 1062.5,545.5C 1057.17,545.5 1051.83,545.5 1046.5,545.5C 1046.67,531.163 1046.5,516.829 1046,502.5C 1041.93,499.675 1038.1,500.008 1034.5,503.5C 1033.5,517.484 1033.17,531.484 1033.5,545.5C 1028.17,545.5 1022.83,545.5 1017.5,545.5C 1017.5,526.5 1017.5,507.5 1017.5,488.5C 1022.83,488.5 1028.17,488.5 1033.5,488.5C 1033.34,490.199 1033.51,491.866 1034,493.5C 1036.11,490.879 1038.61,488.879 1041.5,487.5 Z"/></g>
<g><path style="opacity:1" fill="#011b3e" d="M 741.5,495.5 C 741.5,497.833 741.5,500.167 741.5,502.5C 738.615,502.194 735.948,502.527 733.5,503.5C 730.357,504.134 727.857,505.8 726,508.5C 725.5,520.829 725.333,533.162 725.5,545.5C 720.167,545.5 714.833,545.5 709.5,545.5C 709.5,526.5 709.5,507.5 709.5,488.5C 714.833,488.5 720.167,488.5 725.5,488.5C 725.336,491.187 725.503,493.854 726,496.5C 729.598,490.723 734.765,487.723 741.5,487.5C 741.5,490.167 741.5,492.833 741.5,495.5 Z"/></g>
<g><path style="opacity:1" fill="#011f40" d="M 795.5,488.5 C 800.833,488.5 806.167,488.5 811.5,488.5C 811.5,507.5 811.5,526.5 811.5,545.5C 806.167,545.5 800.833,545.5 795.5,545.5C 795.5,526.5 795.5,507.5 795.5,488.5 Z"/></g>
<g><path style="opacity:1" fill="#011e40" d="M 993.5,488.5 C 998.833,488.5 1004.17,488.5 1009.5,488.5C 1009.5,507.5 1009.5,526.5 1009.5,545.5C 1004.17,545.5 998.833,545.5 993.5,545.5C 993.5,526.5 993.5,507.5 993.5,488.5 Z"/></g>
<g><path style="opacity:1" fill="#042043" d="M 675.5,487.5 C 690.704,485.337 699.87,491.67 703,506.5C 703.499,511.489 703.666,516.489 703.5,521.5C 693.833,521.5 684.167,521.5 674.5,521.5C 674.857,531.364 679.857,535.53 689.5,534C 692.618,533.127 695.618,531.961 698.5,530.5C 700.606,534.349 701.273,538.349 700.5,542.5C 689.341,547.973 678.341,547.807 667.5,542C 659.286,532.311 656.452,521.144 659,508.5C 661.126,498.573 666.626,491.573 675.5,487.5 Z"/></g>
<g><path style="opacity:1" fill="#042043" d="M 627.5,460.5 C 635.482,459.782 643.149,460.949 650.5,464C 651.516,464.519 652.182,465.353 652.5,466.5C 651.878,470.277 650.878,473.944 649.5,477.5C 648.833,477.833 648.167,478.167 647.5,478.5C 641.943,476.707 636.277,476.207 630.5,477C 624.253,481.514 623.92,486.514 629.5,492C 634.341,494.921 639.341,497.588 644.5,500C 656.551,508.158 659.717,518.991 654,532.5C 651.014,538.82 646.181,542.987 639.5,545C 628.635,548.662 618.135,547.829 608,542.5C 608.009,538.446 608.676,534.446 610,530.5C 610.388,529.572 611.055,528.905 612,528.5C 619.304,531.805 626.804,532.305 634.5,530C 638.277,527.089 639.444,523.256 638,518.5C 637.535,517.069 636.701,515.903 635.5,515C 627.067,510.703 619.233,505.536 612,499.5C 603.308,480.895 608.475,467.895 627.5,460.5 Z"/></g>
<g><path style="opacity:1" fill="#021e40" d="M 1139.5,487.5 C 1154.35,485.042 1164.52,490.709 1170,504.5C 1170.67,512.167 1170.67,519.833 1170,527.5C 1165.24,543.299 1154.74,549.466 1138.5,546C 1130.07,542.571 1124.9,536.404 1123,527.5C 1122.09,519.089 1122.43,510.755 1124,502.5C 1127.11,495.225 1132.27,490.225 1139.5,487.5 Z"/></g>
<g><path style="opacity:1" fill="#f0f1f3" d="M 689.5,510.5 C 684.833,510.5 680.167,510.5 675.5,510.5C 675.5,508.833 675.5,507.167 675.5,505.5C 676.429,500.398 679.429,498.231 684.5,499C 688.453,501.747 690.119,505.58 689.5,510.5 Z"/></g>
<g><path style="opacity:1" fill="#edeff1" d="M 876.5,498.5 C 884.798,498.696 888.131,503.029 886.5,511.5C 881.833,511.5 877.167,511.5 872.5,511.5C 871.664,506.406 872.998,502.073 876.5,498.5 Z"/></g>
<g><path style="opacity:1" fill="#eff0f2" d="M 1142.5,500.5 C 1149.52,498.692 1153.35,501.359 1154,508.5C 1154.8,515.889 1154.47,523.223 1153,530.5C 1147.71,536.176 1143.38,535.509 1140,528.5C 1137.26,518.76 1138.1,509.426 1142.5,500.5 Z"/></g>
<g><path style="opacity:1" fill="#edeff1" d="M 1090.5,500.5 C 1093.93,500.107 1097.1,500.773 1100,502.5C 1100.83,511.851 1100.67,521.184 1099.5,530.5C 1093.15,535.397 1088.65,534.063 1086,526.5C 1085.33,520.167 1085.33,513.833 1086,507.5C 1086.94,504.743 1088.44,502.41 1090.5,500.5 Z"/></g>
<g><path style="opacity:1" fill="#aab6c4" d="M 741.5,495.5 C 742.473,497.948 742.806,500.615 742.5,503.5C 739.5,503.5 736.5,503.5 733.5,503.5C 735.948,502.527 738.615,502.194 741.5,502.5C 741.5,500.167 741.5,497.833 741.5,495.5 Z"/></g>
<g><path style="opacity:1" fill="#b0bac7" d="M 455.5,501.5 C 443.711,503.233 431.711,504.233 419.5,504.5C 431.289,502.767 443.289,501.767 455.5,501.5 Z"/></g>
<g><path style="opacity:1" fill="#233956" d="M 394.5,481.5 C 389.5,481.5 384.5,481.5 379.5,481.5C 379.5,489.167 379.5,496.833 379.5,504.5C 384.167,504.5 388.833,504.5 393.5,504.5C 393.5,499.167 393.5,493.833 393.5,488.5C 394.488,493.64 394.821,498.974 394.5,504.5C 397.167,504.5 399.833,504.5 402.5,504.5C 402.5,504.833 402.5,505.167 402.5,505.5C 396.131,505.347 389.797,505.68 383.5,506.5C 382.081,505.549 380.415,505.216 378.5,505.5C 378.5,497.167 378.5,488.833 378.5,480.5C 384.026,480.179 389.36,480.512 394.5,481.5 Z"/></g>
<g><path style="opacity:1" fill="#042142" d="M 743.5,488.5 C 749.093,488.193 754.593,488.527 760,489.5C 762.771,501.788 765.438,514.121 768,526.5C 770.534,514.165 773.201,501.832 776,489.5C 781.072,488.529 786.238,488.195 791.5,488.5C 785.896,507.316 780.896,526.316 776.5,545.5C 770.5,545.5 764.5,545.5 758.5,545.5C 753.375,526.542 748.375,507.542 743.5,488.5 Z"/></g>
<g><path style="opacity:1" fill="#032043" d="M 834.5,487.5 C 840.641,487.1 846.641,487.767 852.5,489.5C 852.997,493.892 852.33,498.225 850.5,502.5C 843.267,498.613 837.767,500.279 834,507.5C 833.333,513.167 833.333,518.833 834,524.5C 834.558,530.636 837.891,533.636 844,533.5C 846.713,533.589 849.213,532.922 851.5,531.5C 852.984,535.399 853.484,539.399 853,543.5C 834.158,551.079 822.158,545.079 817,525.5C 816.199,518.111 816.533,510.777 818,503.5C 821.109,495.559 826.609,490.225 834.5,487.5 Z"/></g>
<g><path style="opacity:1" fill="#99a8b6" d="M 539.5,501.5 C 539.833,501.5 540.167,501.5 540.5,501.5C 540.5,504.5 540.5,507.5 540.5,510.5C 536.833,510.5 533.167,510.5 529.5,510.5C 532.625,509.521 535.958,509.187 539.5,509.5C 539.5,506.833 539.5,504.167 539.5,501.5 Z"/></g>
<g><path style="opacity:1" fill="#a1aebc" d="M 675.5,505.5 C 675.5,507.167 675.5,508.833 675.5,510.5C 680.167,510.5 684.833,510.5 689.5,510.5C 684.695,511.487 679.695,511.821 674.5,511.5C 674.205,509.265 674.539,507.265 675.5,505.5 Z"/></g>
<g><path style="opacity:1" fill="#536782" d="M 496.5,504.5 C 498.265,505.461 500.265,505.795 502.5,505.5C 457.95,508.327 413.283,511.327 368.5,514.5C 366.735,513.539 364.735,513.205 362.5,513.5C 406.976,509.848 451.642,506.848 496.5,504.5 Z"/></g>
<g><path style="opacity:1" fill="#496078" d="M 333.5,505.5 C 333.5,508.5 333.5,511.5 333.5,514.5C 334.833,514.5 336.167,514.5 337.5,514.5C 339.607,515.468 341.941,515.802 344.5,515.5C 342.052,516.473 339.385,516.806 336.5,516.5C 335.432,515.566 334.099,515.232 332.5,515.5C 332.187,511.958 332.521,508.625 333.5,505.5 Z"/></g>
<g><path style="opacity:1" fill="#b9c2ce" d="M 326.5,490.5 C 326.5,500.833 326.5,511.167 326.5,521.5C 330.167,521.5 333.833,521.5 337.5,521.5C 337.5,521.833 337.5,522.167 337.5,522.5C 333.5,522.5 329.5,522.5 325.5,522.5C 325.172,511.654 325.506,500.987 326.5,490.5 Z"/></g>
<g><path style="opacity:1" fill="#001f3e" d="M 508.5,511.5 C 509.249,513.246 510.583,514.246 512.5,514.5C 516.131,513.485 519.798,513.319 523.5,514C 524.634,515.016 524.301,515.683 522.5,516C 523.878,517.713 525.545,519.047 527.5,520C 526.346,520.914 526.513,521.747 528,522.5C 532.655,521.912 537.488,521.745 542.5,522C 541.833,522.667 541.167,523.333 540.5,524C 540.205,525.714 540.538,527.547 541.5,529.5C 538.167,528.167 534.833,528.167 531.5,529.5C 531.082,528.778 530.416,528.278 529.5,528C 530.949,526.883 532.616,526.216 534.5,526C 527.898,524.099 524.565,526.599 524.5,533.5C 523.692,533.808 523.025,534.308 522.5,535C 525.585,537.424 527.418,540.59 528,544.5C 530.069,543.736 532.236,543.236 534.5,543C 533.328,542.581 532.328,541.915 531.5,541C 532.458,539.853 532.125,538.853 530.5,538C 534.167,537.333 537.833,537.333 541.5,538C 541.167,538.333 540.833,538.667 540.5,539C 541.09,540.509 541.756,542.009 542.5,543.5C 544.291,542.076 546.125,540.742 548,539.5C 548.174,544.684 548.674,549.684 549.5,554.5C 549.5,564.5 549.5,574.5 549.5,584.5C 520.827,585.254 492.16,585.254 463.5,584.5C 456.247,557.91 438.913,545.91 411.5,548.5C 410.942,547.21 409.942,546.377 408.5,546C 409.833,545.333 409.833,544.667 408.5,544C 410.556,543.689 412.556,543.189 414.5,542.5C 418.635,542.537 423.135,542.871 428,543.5C 429.067,542.809 430.234,542.309 431.5,542C 428.086,541.703 424.753,541.036 421.5,540C 421.5,539 421.5,538 421.5,537C 416.917,535.545 412.251,534.378 407.5,533.5C 413.564,528.472 420.564,525.638 428.5,525C 428.888,523.475 428.888,521.808 428.5,520C 430.301,519.683 430.634,519.016 429.5,518C 434.265,517.863 438.265,517.363 441.5,516.5C 463.65,514.386 485.984,512.72 508.5,511.5 Z"/></g>
<g><path style="opacity:1" fill="#091b39" d="M 330.5,497.5 C 332.982,499.503 333.982,502.169 333.5,505.5C 332.521,508.625 332.187,511.958 332.5,515.5C 334.099,515.232 335.432,515.566 336.5,516.5C 334.5,516.5 332.5,516.5 330.5,516.5C 330.5,510.167 330.5,503.833 330.5,497.5 Z"/></g>
<g><path style="opacity:1" fill="#031f41" d="M 1222.5,523.5 C 1222.28,524.675 1222.61,525.675 1223.5,526.5C 1224.45,524.955 1224.79,523.288 1224.5,521.5C 1225.63,511.707 1227.3,502.04 1229.5,492.5C 1230.4,491.791 1230.74,490.791 1230.5,489.5C 1235.17,489.5 1239.83,489.5 1244.5,489.5C 1240.42,508.241 1236.09,526.908 1231.5,545.5C 1226.17,545.5 1220.83,545.5 1215.5,545.5C 1213.64,533.076 1211.31,520.742 1208.5,508.5C 1205.84,520.781 1203.51,533.114 1201.5,545.5C 1195.83,545.5 1190.17,545.5 1184.5,545.5C 1180.61,526.48 1176.61,507.48 1172.5,488.5C 1177.83,488.5 1183.17,488.5 1188.5,488.5C 1190.34,500.556 1192.51,512.556 1195,524.5C 1197.49,512.545 1199.66,500.545 1201.5,488.5C 1206.5,488.5 1211.5,488.5 1216.5,488.5C 1218.76,500.111 1220.76,511.778 1222.5,523.5 Z"/></g>
<g><path style="opacity:1" fill="#022044" d="M 441.5,516.5 C 438.265,517.363 434.265,517.863 429.5,518C 430.634,519.016 430.301,519.683 428.5,520C 428.888,521.808 428.888,523.475 428.5,525C 420.564,525.638 413.564,528.472 407.5,533.5C 412.251,534.378 416.917,535.545 421.5,537C 421.5,538 421.5,539 421.5,540C 424.753,541.036 428.086,541.703 431.5,542C 430.234,542.309 429.067,542.809 428,543.5C 423.135,542.871 418.635,542.537 414.5,542.5C 412.556,543.189 410.556,543.689 408.5,544C 409.833,544.667 409.833,545.333 408.5,546C 409.942,546.377 410.942,547.21 411.5,548.5C 407.301,549.268 403.301,550.601 399.5,552.5C 396.247,550.894 393.247,551.227 390.5,553.5C 388.208,551.976 386.208,552.309 384.5,554.5C 383.1,552.218 383.766,550.718 386.5,550C 385.833,549.667 385.167,549.333 384.5,549C 384.952,544.438 385.285,539.938 385.5,535.5C 390.499,536.018 394.165,534.185 396.5,530C 395.454,528.461 394.121,528.295 392.5,529.5C 388.933,528.239 385.266,527.405 381.5,527C 382.793,526.51 384.127,526.343 385.5,526.5C 385.36,524.876 386.027,523.71 387.5,523C 385.567,522.217 384.067,522.717 383,524.5C 376.24,522.838 369.407,521.505 362.5,520.5C 388.796,518.452 415.129,517.118 441.5,516.5 Z"/></g>
<g><path style="opacity:1" fill="#4e6079" d="M 900.5,506.5 C 901.487,511.305 901.821,516.305 901.5,521.5C 891.833,521.5 882.167,521.5 872.5,521.5C 881.652,520.506 890.985,520.173 900.5,520.5C 900.5,515.833 900.5,511.167 900.5,506.5 Z"/></g>
<g><path style="opacity:1" fill="#001f3e" d="M 362.5,520.5 C 369.407,521.505 376.24,522.838 383,524.5C 384.067,522.717 385.567,522.217 387.5,523C 386.027,523.71 385.36,524.876 385.5,526.5C 384.127,526.343 382.793,526.51 381.5,527C 385.266,527.405 388.933,528.239 392.5,529.5C 394.121,528.295 395.454,528.461 396.5,530C 394.165,534.185 390.499,536.018 385.5,535.5C 385.285,539.938 384.952,544.438 384.5,549C 385.167,549.333 385.833,549.667 386.5,550C 383.766,550.718 383.1,552.218 384.5,554.5C 386.208,552.309 388.208,551.976 390.5,553.5C 393.247,551.227 396.247,550.894 399.5,552.5C 387.987,559.857 380.653,570.191 377.5,583.5C 362.496,582.595 347.496,581.595 332.5,580.5C 332.804,579.85 333.137,579.183 333.5,578.5C 330.833,577.833 328.167,577.167 325.5,576.5C 331.811,575.517 338.144,574.684 344.5,574C 342.616,573.784 340.949,573.117 339.5,572C 340.973,571.29 341.64,570.124 341.5,568.5C 338.072,568.453 335.072,567.287 332.5,565C 332.799,563.68 332.966,562.18 333,560.5C 335.082,558.053 337.249,555.72 339.5,553.5C 340.663,547.863 340.83,542.196 340,536.5C 339.667,537.167 339.333,537.833 339,538.5C 338.529,535.529 337.362,532.862 335.5,530.5C 336.002,529.284 336.335,528.117 336.5,527C 334.167,526.667 331.833,526.333 329.5,526C 333.42,524.687 337.42,523.687 341.5,523C 340.207,522.51 338.873,522.343 337.5,522.5C 337.5,522.167 337.5,521.833 337.5,521.5C 345.831,521.116 354.164,520.782 362.5,520.5 Z"/></g>
<g><path style="opacity:1" fill="#637a97" d="M 1224.5,521.5 C 1224.79,523.288 1224.45,524.955 1223.5,526.5C 1222.61,525.675 1222.28,524.675 1222.5,523.5C 1223.17,522.833 1223.83,522.167 1224.5,521.5 Z"/></g>
<g><path style="opacity:1" fill="#e25616" d="M 541.5,529.5 C 541.5,531.5 541.5,533.5 541.5,535.5C 537.833,535.5 534.167,535.5 530.5,535.5C 530.325,533.379 530.659,531.379 531.5,529.5C 534.833,528.167 538.167,528.167 541.5,529.5 Z"/></g>
<g><path style="opacity:1" fill="#944124" d="M 288.5,534.5 C 295.313,533.509 302.313,533.175 309.5,533.5C 309.768,535.099 309.434,536.432 308.5,537.5C 308.5,536.5 308.5,535.5 308.5,534.5C 301.833,534.5 295.167,534.5 288.5,534.5 Z"/></g>
<g><path style="opacity:1" fill="#e85c15" d="M 281.5,534.5 C 283.833,534.5 286.167,534.5 288.5,534.5C 295.167,534.5 301.833,534.5 308.5,534.5C 308.5,535.5 308.5,536.5 308.5,537.5C 308.5,538.833 308.5,540.167 308.5,541.5C 299.5,541.5 290.5,541.5 281.5,541.5C 281.5,539.167 281.5,536.833 281.5,534.5 Z"/></g>
<g><path style="opacity:1" fill="#db5211" d="M 288.5,555.5 C 294.529,554.165 297.196,556.498 296.5,562.5C 293.482,562.665 290.482,562.498 287.5,562C 286.144,559.586 286.478,557.419 288.5,555.5 Z"/></g>
<g><path style="opacity:1" fill="#e5621c" d="M 704.5,574.5 C 708.846,574.334 713.179,574.501 717.5,575C 723.095,577.354 724.928,581.521 723,587.5C 722.028,589.305 720.861,590.972 719.5,592.5C 721.644,596.621 723.644,600.788 725.5,605C 722.773,605.818 720.106,605.652 717.5,604.5C 712.796,589.689 710.463,590.022 710.5,605.5C 708.5,605.5 706.5,605.5 704.5,605.5C 704.5,595.167 704.5,584.833 704.5,574.5 Z"/></g>
<g><path style="opacity:1" fill="#e66929" d="M 727.5,574.5 C 733.167,574.5 738.833,574.5 744.5,574.5C 744.5,576.5 744.5,578.5 744.5,580.5C 741.167,580.5 737.833,580.5 734.5,580.5C 734.5,582.5 734.5,584.5 734.5,586.5C 737.5,586.5 740.5,586.5 743.5,586.5C 743.5,588.5 743.5,590.5 743.5,592.5C 740.5,592.5 737.5,592.5 734.5,592.5C 734.5,594.833 734.5,597.167 734.5,599.5C 737.833,599.5 741.167,599.5 744.5,599.5C 744.5,601.5 744.5,603.5 744.5,605.5C 738.833,605.5 733.167,605.5 727.5,605.5C 727.5,595.167 727.5,584.833 727.5,574.5 Z"/></g>
<g><path style="opacity:1" fill="#e96118" d="M 928.5,574.5 C 930.5,574.5 932.5,574.5 934.5,574.5C 934.5,584.833 934.5,595.167 934.5,605.5C 932.5,605.5 930.5,605.5 928.5,605.5C 928.5,595.167 928.5,584.833 928.5,574.5 Z"/></g>
<g><path style="opacity:1" fill="#e96622" d="M 948.5,589.5 C 948.539,588.244 948.039,587.244 947,586.5C 946.5,592.825 946.334,599.158 946.5,605.5C 944.5,605.5 942.5,605.5 940.5,605.5C 940.5,595.167 940.5,584.833 940.5,574.5C 943.247,574.187 945.914,574.52 948.5,575.5C 950.965,581.397 953.132,587.397 955,593.5C 955.5,587.175 955.666,580.842 955.5,574.5C 957.5,574.5 959.5,574.5 961.5,574.5C 961.5,584.833 961.5,595.167 961.5,605.5C 959.076,605.808 956.743,605.474 954.5,604.5C 952.492,599.471 950.492,594.471 948.5,589.5 Z"/></g>
<g><path style="opacity:1" fill="#e76522" d="M 1025.5,605.5 C 1025.5,595.5 1025.5,585.5 1025.5,575.5C 1027.5,575.5 1029.5,575.5 1031.5,575.5C 1031.5,579.167 1031.5,582.833 1031.5,586.5C 1034.17,586.5 1036.83,586.5 1039.5,586.5C 1039.5,582.5 1039.5,578.5 1039.5,574.5C 1041.83,574.5 1044.17,574.5 1046.5,574.5C 1046.5,584.833 1046.5,595.167 1046.5,605.5C 1044.17,605.5 1041.83,605.5 1039.5,605.5C 1039.5,601.167 1039.5,596.833 1039.5,592.5C 1036.83,592.5 1034.17,592.5 1031.5,592.5C 1031.5,596.833 1031.5,601.167 1031.5,605.5C 1029.5,605.5 1027.5,605.5 1025.5,605.5 Z"/></g>
<g><path style="opacity:1" fill="#eb6622" d="M 1141.5,574.5 C 1145.85,574.334 1150.18,574.501 1154.5,575C 1157.06,575.685 1158.89,577.185 1160,579.5C 1161.46,584.64 1160.29,588.974 1156.5,592.5C 1158.48,596.469 1160.48,600.469 1162.5,604.5C 1159.91,605.48 1157.25,605.813 1154.5,605.5C 1150.71,589.91 1148.71,589.91 1148.5,605.5C 1146.17,605.5 1143.83,605.5 1141.5,605.5C 1141.5,595.167 1141.5,584.833 1141.5,574.5 Z"/></g>
<g><path style="opacity:1" fill="#e96624" d="M 682.5,574.5 C 688.167,574.5 693.833,574.5 699.5,574.5C 699.5,576.5 699.5,578.5 699.5,580.5C 696.167,580.5 692.833,580.5 689.5,580.5C 689.5,582.5 689.5,584.5 689.5,586.5C 692.187,586.336 694.854,586.503 697.5,587C 698.406,588.699 698.739,590.533 698.5,592.5C 695.5,592.5 692.5,592.5 689.5,592.5C 689.5,594.833 689.5,597.167 689.5,599.5C 692.833,599.5 696.167,599.5 699.5,599.5C 699.5,601.5 699.5,603.5 699.5,605.5C 693.833,605.5 688.167,605.5 682.5,605.5C 682.5,595.167 682.5,584.833 682.5,574.5 Z"/></g>
<g><path style="opacity:1" fill="#ea631e" d="M 828.5,574.5 C 831.167,574.5 833.833,574.5 836.5,574.5C 838.646,580.802 840.812,587.135 843,593.5C 843.5,587.175 843.666,580.842 843.5,574.5C 845.5,574.5 847.5,574.5 849.5,574.5C 849.5,584.833 849.5,595.167 849.5,605.5C 846.881,605.768 844.381,605.435 842,604.5C 839.863,598.421 837.529,592.421 835,586.5C 834.5,592.825 834.334,599.158 834.5,605.5C 832.5,605.5 830.5,605.5 828.5,605.5C 828.5,595.167 828.5,584.833 828.5,574.5 Z"/></g>
<g><path style="opacity:1" fill="#ed9255" d="M 823.5,575.5 C 818.167,575.5 812.833,575.5 807.5,575.5C 807.5,585.5 807.5,595.5 807.5,605.5C 806.506,595.347 806.172,585.014 806.5,574.5C 812.358,574.178 818.025,574.511 823.5,575.5 Z"/></g>
<g><path style="opacity:1" fill="#e89563" d="M 923.5,574.5 C 924.461,576.265 924.795,578.265 924.5,580.5C 921.167,580.5 917.833,580.5 914.5,580.5C 917.287,579.523 920.287,579.19 923.5,579.5C 923.5,577.833 923.5,576.167 923.5,574.5 Z"/></g>
<g><path style="opacity:1" fill="#faf6f3" d="M 714.5,580.5 C 715.947,581.134 716.613,582.301 716.5,584C 716.613,585.699 715.947,586.866 714.5,587.5C 713.5,587.5 712.5,587.5 711.5,587.5C 711.5,585.167 711.5,582.833 711.5,580.5C 712.5,580.5 713.5,580.5 714.5,580.5 Z"/></g>
<g><path style="opacity:1" fill="#fae9dd" d="M 1148.5,579.5 C 1153.28,580.091 1154.95,582.591 1153.5,587C 1151.98,588.009 1150.31,588.509 1148.5,588.5C 1148.5,585.5 1148.5,582.5 1148.5,579.5 Z"/></g>
<g><path style="opacity:1" fill="#6f7e93" d="M 271.5,578.5 C 269.833,578.5 268.167,578.5 266.5,578.5C 266.5,582.167 266.5,585.833 266.5,589.5C 265.517,585.702 265.183,581.702 265.5,577.5C 267.735,577.205 269.735,577.539 271.5,578.5 Z"/></g>
<g><path style="opacity:1" fill="#e7621e" d="M 1002.5,574.5 C 1009.17,574.5 1015.83,574.5 1022.5,574.5C 1022.5,576.5 1022.5,578.5 1022.5,580.5C 1020.17,580.5 1017.83,580.5 1015.5,580.5C 1015.5,588.833 1015.5,597.167 1015.5,605.5C 1013.17,605.5 1010.83,605.5 1008.5,605.5C 1008.5,597.167 1008.5,588.833 1008.5,580.5C 1006.5,580.5 1004.5,580.5 1002.5,580.5C 1002.5,578.5 1002.5,576.5 1002.5,574.5 Z"/></g>
<g><path style="opacity:1" fill="#f3d3c1" d="M 662.5,574.5 C 663.482,577.962 663.815,581.629 663.5,585.5C 665.5,585.5 667.5,585.5 669.5,585.5C 669.185,581.629 669.518,577.962 670.5,574.5C 670.5,574.833 670.5,575.167 670.5,575.5C 670.5,579.167 670.5,582.833 670.5,586.5C 667.833,586.5 665.167,586.5 662.5,586.5C 662.5,582.5 662.5,578.5 662.5,574.5 Z"/></g>
<g><path style="opacity:1" fill="#efb696" d="M 714.5,580.5 C 713.5,580.5 712.5,580.5 711.5,580.5C 711.5,582.833 711.5,585.167 711.5,587.5C 712.5,587.5 713.5,587.5 714.5,587.5C 713.432,588.434 712.099,588.768 710.5,588.5C 710.5,585.5 710.5,582.5 710.5,579.5C 712.099,579.232 713.432,579.566 714.5,580.5 Z"/></g>
<g><path style="opacity:1" fill="#e96424" d="M 852.5,574.5 C 859.167,574.5 865.833,574.5 872.5,574.5C 872.5,576.5 872.5,578.5 872.5,580.5C 870.167,580.5 867.833,580.5 865.5,580.5C 865.5,588.833 865.5,597.167 865.5,605.5C 863.167,605.5 860.833,605.5 858.5,605.5C 858.5,597.167 858.5,588.833 858.5,580.5C 856.5,580.5 854.5,580.5 852.5,580.5C 852.5,578.5 852.5,576.5 852.5,574.5 Z"/></g>
<g><path style="opacity:1" fill="#e66725" d="M 967.5,574.5 C 984.884,572.05 991.717,579.383 988,596.5C 987.27,600.896 984.77,603.73 980.5,605C 976.179,605.499 971.846,605.666 967.5,605.5C 967.5,595.167 967.5,584.833 967.5,574.5 Z"/></g>
<g><path style="opacity:1" fill="#f9f5f2" d="M 974.5,580.5 C 980.869,580.22 983.203,583.22 981.5,589.5C 982.874,595.788 980.541,599.454 974.5,600.5C 974.5,593.833 974.5,587.167 974.5,580.5 Z"/></g>
<g><path style="opacity:1" fill="#e9641c" d="M 1073.5,574.5 C 1075.5,574.5 1077.5,574.5 1079.5,574.5C 1079.5,584.833 1079.5,595.167 1079.5,605.5C 1077.5,605.5 1075.5,605.5 1073.5,605.5C 1073.5,595.167 1073.5,584.833 1073.5,574.5 Z"/></g>
<g><path style="opacity:1" fill="#e76223" d="M 1051.5,574.5 C 1057.17,574.5 1062.83,574.5 1068.5,574.5C 1068.5,576.5 1068.5,578.5 1068.5,580.5C 1065.17,580.5 1061.83,580.5 1058.5,580.5C 1058.5,582.5 1058.5,584.5 1058.5,586.5C 1061.5,586.5 1064.5,586.5 1067.5,586.5C 1067.5,588.5 1067.5,590.5 1067.5,592.5C 1064.5,592.5 1061.5,592.5 1058.5,592.5C 1058.5,594.833 1058.5,597.167 1058.5,599.5C 1061.83,599.5 1065.17,599.5 1068.5,599.5C 1068.5,601.5 1068.5,603.5 1068.5,605.5C 1062.83,605.5 1057.17,605.5 1051.5,605.5C 1051.5,595.167 1051.5,584.833 1051.5,574.5 Z"/></g>
<g><path style="opacity:1" fill="#e86521" d="M 619.5,574.5 C 621.833,574.5 624.167,574.5 626.5,574.5C 627.331,581.491 628.165,588.491 629,595.5C 630.215,588.496 631.381,581.496 632.5,574.5C 635.119,574.232 637.619,574.565 640,575.5C 641.434,582.102 642.434,588.768 643,595.5C 644.271,588.544 645.104,581.544 645.5,574.5C 647.833,574.5 650.167,574.5 652.5,574.5C 650.51,584.776 648.843,595.11 647.5,605.5C 644.833,605.5 642.167,605.5 639.5,605.5C 637.171,578.846 634.837,578.846 632.5,605.5C 629.289,605.988 626.456,605.321 624,603.5C 622.715,593.792 621.215,584.125 619.5,574.5 Z"/></g>
<g><path style="opacity:1" fill="#e7621e" d="M 767.5,580.5 C 767.5,582.5 767.5,584.5 767.5,586.5C 770.5,586.5 773.5,586.5 776.5,586.5C 776.5,588.5 776.5,590.5 776.5,592.5C 773.5,592.5 770.5,592.5 767.5,592.5C 767.5,595.167 767.5,597.833 767.5,600.5C 770.833,600.5 774.167,600.5 777.5,600.5C 777.5,602.167 777.5,603.833 777.5,605.5C 772.167,605.5 766.833,605.5 761.5,605.5C 761.5,595.5 761.5,585.5 761.5,575.5C 766.5,575.5 771.5,575.5 776.5,575.5C 776.5,576.833 776.5,578.167 776.5,579.5C 773.287,579.19 770.287,579.523 767.5,580.5 Z"/></g>
<g><path style="opacity:1" fill="#ea651f" d="M 779.5,574.5 C 782.167,574.5 784.833,574.5 787.5,574.5C 788.681,581.892 790.181,589.225 792,596.5C 793.695,589.194 795.195,581.86 796.5,574.5C 798.924,574.192 801.257,574.526 803.5,575.5C 800.654,585.397 798.321,595.397 796.5,605.5C 793.428,605.817 790.428,605.484 787.5,604.5C 785.438,594.319 782.772,584.319 779.5,574.5 Z"/></g>
<g><path style="opacity:1" fill="#ea6c2b" d="M 1118.5,574.5 C 1125.17,574.5 1131.83,574.5 1138.5,574.5C 1138.5,576.5 1138.5,578.5 1138.5,580.5C 1136.5,580.5 1134.5,580.5 1132.5,580.5C 1132.5,588.833 1132.5,597.167 1132.5,605.5C 1130.17,605.5 1127.83,605.5 1125.5,605.5C 1125.5,597.167 1125.5,588.833 1125.5,580.5C 1123.17,580.5 1120.83,580.5 1118.5,580.5C 1118.5,578.5 1118.5,576.5 1118.5,574.5 Z"/></g>
<g><path style="opacity:1" fill="#e86624" d="M 823.5,575.5 C 823.5,577.167 823.5,578.833 823.5,580.5C 820.167,580.5 816.833,580.5 813.5,580.5C 813.5,582.5 813.5,584.5 813.5,586.5C 816.5,586.5 819.5,586.5 822.5,586.5C 822.5,588.5 822.5,590.5 822.5,592.5C 819.5,592.5 816.5,592.5 813.5,592.5C 813.5,595.167 813.5,597.833 813.5,600.5C 816.833,600.5 820.167,600.5 823.5,600.5C 823.5,602.167 823.5,603.833 823.5,605.5C 818.167,605.5 812.833,605.5 807.5,605.5C 807.5,595.5 807.5,585.5 807.5,575.5C 812.833,575.5 818.167,575.5 823.5,575.5 Z"/></g>
<g><path style="opacity:1" fill="#ea6926" d="M 1218.5,574.5 C 1218.18,578.555 1218.51,582.555 1219.5,586.5C 1220.11,586.376 1220.44,586.043 1220.5,585.5C 1222.1,582.203 1223.77,578.87 1225.5,575.5C 1227.83,574.167 1230.17,574.167 1232.5,575.5C 1229.78,579.78 1227.44,584.28 1225.5,589C 1228.29,594.073 1230.95,599.239 1233.5,604.5C 1231.24,605.647 1228.9,605.814 1226.5,605C 1224.29,600.753 1221.96,596.586 1219.5,592.5C 1218.51,596.783 1218.17,601.116 1218.5,605.5C 1216.17,605.5 1213.83,605.5 1211.5,605.5C 1211.5,595.167 1211.5,584.833 1211.5,574.5C 1213.83,574.5 1216.17,574.5 1218.5,574.5 Z"/></g>
<g><path style="opacity:1" fill="#f1a679" d="M 1218.5,574.5 C 1219.17,578.167 1219.83,581.833 1220.5,585.5C 1220.44,586.043 1220.11,586.376 1219.5,586.5C 1218.51,582.555 1218.18,578.555 1218.5,574.5 Z"/></g>
<g><path style="opacity:1" fill="#ea621e" d="M 923.5,574.5 C 923.5,576.167 923.5,577.833 923.5,579.5C 920.287,579.19 917.287,579.523 914.5,580.5C 914.5,582.833 914.5,585.167 914.5,587.5C 917.167,587.5 919.833,587.5 922.5,587.5C 922.5,589.167 922.5,590.833 922.5,592.5C 919.833,592.5 917.167,592.5 914.5,592.5C 914.5,596.833 914.5,601.167 914.5,605.5C 912.167,605.5 909.833,605.5 907.5,605.5C 907.5,595.167 907.5,584.833 907.5,574.5C 912.833,574.5 918.167,574.5 923.5,574.5 Z"/></g>
<g><path style="opacity:1" fill="#e89561" d="M 1031.5,575.5 C 1029.5,575.5 1027.5,575.5 1025.5,575.5C 1025.5,585.5 1025.5,595.5 1025.5,605.5C 1024.51,595.347 1024.17,585.014 1024.5,574.5C 1027.06,574.198 1029.39,574.532 1031.5,575.5 Z"/></g>
<g><path style="opacity:1" fill="#e66321" d="M 1164.5,574.5 C 1166.83,574.5 1169.17,574.5 1171.5,574.5C 1171.33,582.507 1171.5,590.507 1172,598.5C 1174,601.167 1176,601.167 1178,598.5C 1178.5,590.507 1178.67,582.507 1178.5,574.5C 1180.83,574.5 1183.17,574.5 1185.5,574.5C 1185.67,583.173 1185.5,591.84 1185,600.5C 1182.93,604.537 1179.59,606.204 1175,605.5C 1171.07,606.209 1168.07,604.876 1166,601.5C 1164.59,592.582 1164.09,583.582 1164.5,574.5 Z"/></g>
<g><path style="opacity:1" fill="#e45b18" d="M 662.5,574.5 C 662.5,578.5 662.5,582.5 662.5,586.5C 665.167,586.5 667.833,586.5 670.5,586.5C 670.5,582.833 670.5,579.167 670.5,575.5C 672.5,575.5 674.5,575.5 676.5,575.5C 676.5,585.5 676.5,595.5 676.5,605.5C 674.5,605.5 672.5,605.5 670.5,605.5C 670.5,601.167 670.5,596.833 670.5,592.5C 667.833,592.5 665.167,592.5 662.5,592.5C 662.5,596.833 662.5,601.167 662.5,605.5C 660.5,605.5 658.5,605.5 656.5,605.5C 656.5,595.167 656.5,584.833 656.5,574.5C 658.5,574.5 660.5,574.5 662.5,574.5 Z"/></g>
<g><path style="opacity:1" fill="#b6bcc8" d="M 559.5,595.5 C 569.506,595.334 579.506,595.5 589.5,596C 584.08,597.091 578.58,597.591 573,597.5C 568.114,597.493 563.614,596.826 559.5,595.5 Z"/></g>
<g><path style="opacity:1" fill="#ed894c" d="M 670.5,575.5 C 670.5,575.167 670.5,574.833 670.5,574.5C 672.833,574.5 675.167,574.5 677.5,574.5C 677.828,585.014 677.494,595.347 676.5,605.5C 676.5,595.5 676.5,585.5 676.5,575.5C 674.5,575.5 672.5,575.5 670.5,575.5 Z"/></g>
<g><path style="opacity:1" fill="#e6621e" d="M 1085.5,574.5 C 1090.18,574.334 1094.85,574.501 1099.5,575C 1104.12,577.077 1105.95,580.577 1105,585.5C 1104.36,588.112 1103.19,590.446 1101.5,592.5C 1103.16,596.495 1104.83,600.495 1106.5,604.5C 1104.24,605.647 1101.9,605.814 1099.5,605C 1094.64,589.864 1092.3,590.031 1092.5,605.5C 1090.17,605.5 1087.83,605.5 1085.5,605.5C 1085.5,595.167 1085.5,584.833 1085.5,574.5 Z"/></g>
<g><path style="opacity:1" fill="#faeee6" d="M 1092.5,579.5 C 1098.04,579.528 1099.71,582.028 1097.5,587C 1095.98,588.009 1094.31,588.509 1092.5,588.5C 1092.5,585.5 1092.5,582.5 1092.5,579.5 Z"/></g>
<g><path style="opacity:1" fill="#e77d41" d="M 767.5,580.5 C 770.287,579.523 773.287,579.19 776.5,579.5C 776.5,578.167 776.5,576.833 776.5,575.5C 771.5,575.5 766.5,575.5 761.5,575.5C 761.5,585.5 761.5,595.5 761.5,605.5C 760.506,595.347 760.172,585.014 760.5,574.5C 766.167,574.5 771.833,574.5 777.5,574.5C 777.5,576.5 777.5,578.5 777.5,580.5C 774.167,580.5 770.833,580.5 767.5,580.5 Z"/></g>
<g><path style="opacity:1" fill="#edb597" d="M 948.5,589.5 C 947.833,594.833 947.167,600.167 946.5,605.5C 946.334,599.158 946.5,592.825 947,586.5C 948.039,587.244 948.539,588.244 948.5,589.5 Z"/></g>
<g><path style="opacity:1" fill="#011a32" d="M 584.5,608.5 C 581.193,619.141 574.193,626.141 563.5,629.5C 553.201,630.594 542.867,630.76 532.5,630C 531.473,629.487 530.473,628.987 529.5,628.5C 519.241,622.888 513.241,614.222 511.5,602.5C 512.404,601.791 512.737,600.791 512.5,599.5C 517.766,600.2 523.099,600.034 528.5,599C 527.5,598.667 526.5,598.333 525.5,598C 529.901,597.644 534.234,598.144 538.5,599.5C 539.554,599.32 540.554,598.987 541.5,598.5C 542.522,601.441 543.355,604.441 544,607.5C 544.561,608.022 545.228,608.355 546,608.5C 549.594,607.887 553.094,607.554 556.5,607.5C 565.392,608.095 574.225,608.762 583,609.5C 583.333,608.5 583.667,607.5 584,606.5C 584.464,607.094 584.631,607.761 584.5,608.5 Z"/></g>
<g><path style="opacity:1" fill="#f6f6f7" d="M 511.5,602.5 C 513.241,614.222 519.241,622.888 529.5,628.5C 516.171,629.167 502.671,629.5 489,629.5C 475.15,629.499 461.65,628.833 448.5,627.5C 453.657,620.88 456.991,613.38 458.5,605C 467.237,604.873 475.57,603.206 483.5,600C 492.827,599.5 502.161,599.334 511.5,599.5C 511.5,600.5 511.5,601.5 511.5,602.5 Z"/></g>
<g><path style="opacity:1" fill="#e76421" d="M 878.5,574.5 C 882.5,574.5 886.5,574.5 890.5,574.5C 890.5,576.167 890.5,577.833 890.5,579.5C 887.813,579.336 885.146,579.503 882.5,580C 881.643,580.689 880.977,581.522 880.5,582.5C 883.828,585.658 887.328,588.658 891,591.5C 893.776,600.413 890.442,605.413 881,606.5C 875.861,606.858 873.695,604.525 874.5,599.5C 877.469,600.329 880.469,600.495 883.5,600C 885.283,598.933 885.783,597.433 885,595.5C 883.269,593.383 881.102,591.883 878.5,591C 873.193,585.428 873.193,579.928 878.5,574.5 Z"/></g>
<g><path style="opacity:1" fill="#e96522" d="M 1196.5,574.5 C 1200.7,574.076 1204.7,574.576 1208.5,576C 1207.91,577.509 1207.24,579.009 1206.5,580.5C 1201.41,578.407 1198.25,580.074 1197,585.5C 1195.99,590.111 1196.66,594.445 1199,598.5C 1201.21,600.706 1203.71,601.04 1206.5,599.5C 1209.7,602.93 1209.03,605.097 1204.5,606C 1196.44,607.048 1191.61,603.548 1190,595.5C 1187.77,587.042 1189.94,580.042 1196.5,574.5 Z"/></g>
<g><path style="opacity:1" fill="#e05b19" d="M 407.5,575.5 C 420.399,574.9 428.232,580.9 431,593.5C 432.768,603.862 429.934,612.695 422.5,620C 407.746,626.039 398.246,621.206 394,605.5C 391.508,592.078 396.008,582.078 407.5,575.5 Z"/></g>
<g><path style="opacity:1" fill="#152641" d="M 409.5,611.5 C 414.159,611.015 415.492,612.848 413.5,617C 412.207,617.49 410.873,617.657 409.5,617.5C 409.5,615.5 409.5,613.5 409.5,611.5 Z"/></g>
<g><path style="opacity:1" fill="#1c1b3b" d="M 419.5,608.5 C 423.35,608.701 424.35,610.534 422.5,614C 418.83,613.836 417.83,612.003 419.5,608.5 Z"/></g>
<g><path style="opacity:1" fill="#221b24" d="M 401.5,605.5 C 406.159,605.015 407.492,606.848 405.5,611C 400.728,611.81 399.395,609.977 401.5,605.5 Z"/></g>
<g><path style="opacity:1" fill="#312c30" d="M 408.5,606.5 C 411.484,605.663 414.318,604.329 417,602.5C 418.421,594.915 415.588,592.415 408.5,595C 407.526,597.665 406.859,597.831 406.5,595.5C 410.425,588.836 414.592,588.836 419,595.5C 420.593,601.982 418.26,606.316 412,608.5C 410.541,608.192 409.374,607.525 408.5,606.5 Z"/></g>
<g><path style="opacity:1" fill="#212847" d="M 422.5,597.5 C 424.167,597.5 425.833,597.5 427.5,597.5C 428.575,601.938 426.908,603.938 422.5,603.5C 422.5,601.5 422.5,599.5 422.5,597.5 Z"/></g>
<g><path style="opacity:1" fill="#6b4533" d="M 408.5,606.5 C 405.598,603.173 404.931,599.506 406.5,595.5C 406.859,597.831 407.526,597.665 408.5,595C 415.588,592.415 418.421,594.915 417,602.5C 414.318,604.329 411.484,605.663 408.5,606.5 Z"/></g>
<g><path style="opacity:1" fill="#2b3142" d="M 399.5,596.5 C 403.068,596.759 404.401,598.759 403.5,602.5C 402.167,602.5 400.833,602.5 399.5,602.5C 399.5,600.5 399.5,598.5 399.5,596.5 Z"/></g>
<g><path style="opacity:1" fill="#242235" d="M 402.5,586.5 C 405.966,587.109 406.966,588.942 405.5,592C 401.537,592.118 400.537,590.284 402.5,586.5 Z"/></g>
<g><path style="opacity:1" fill="#172142" d="M 419.5,585.5 C 423.692,585.403 425.025,587.236 423.5,591C 418.728,591.81 417.395,589.977 419.5,585.5 Z"/></g>
<g><path style="opacity:1" fill="#262747" d="M 410.5,580.5 C 414.473,581.075 415.473,583.242 413.5,587C 410.771,587.801 409.105,586.801 408.5,584C 408.862,582.566 409.528,581.399 410.5,580.5 Z"/></g>
<g><path style="opacity:1" fill="#aeafb0" d="M 448.5,627.5 C 461.65,628.833 475.15,629.499 489,629.5C 502.671,629.5 516.171,629.167 529.5,628.5C 530.473,628.987 531.473,629.487 532.5,630C 542.867,630.76 553.201,630.594 563.5,629.5C 603.063,630.981 642.729,632.814 682.5,635C 550.831,640.93 419.164,640.93 287.5,635C 322.888,632.453 358.222,630.953 393.5,630.5C 397.385,633.52 401.719,635.687 406.5,637C 415.5,637.667 424.5,637.667 433.5,637C 439.547,635.32 444.547,632.153 448.5,627.5 Z"/></g>
</svg>
